<svg id="Group_1554" data-name="Group 1554" xmlns="http://www.w3.org/2000/svg" viewBox="157 3988 129 129">
  <defs>
    <style>
      .cls-1 {
        fill: #ea4e51;
      }

      .cls-2 {
        fill: none;
      }
    </style>
  </defs>
  <g id="placeholder" transform="translate(170.834 4002)">
    <g id="Group_1553" data-name="Group 1553">
      <path id="Path_8308" data-name="Path 8308" class="cls-1" d="M50.7,0A38.536,38.536,0,0,0,12.166,38.533C12.166,68.28,50.7,101.4,50.7,101.4s38.537-34.475,38.537-62.87A38.54,38.54,0,0,0,50.7,0ZM69.27,58.622a22.183,22.183,0,0,0-10.751-8.26c1.943-1.9,3.343-4.767,3.98-8.754.855.154,1.983-.73,2.373-2.222.4-1.532.87-4.1,0-4.33a1.094,1.094,0,0,0-.795.118V30.919c.14-4.624-.49-9.094-5.536-11.03a9.913,9.913,0,0,1-.981-3.615c-2.269,2.044-10.894,2.874-10.894,2.874l.1.025C35.829,20.3,37.407,24.23,37.407,30.919v4.255a1.091,1.091,0,0,0-.795-.118c-.873.233-.608,2.706-.208,4.237.39,1.5,1.732,2.487,2.591,2.312.655,4.187,1.958,6.972,3.758,8.8a22.188,22.188,0,0,0-10.636,8.217,28.391,28.391,0,1,1,37.153,0Z"/>
    </g>
  </g>
  <rect id="Rectangle_864" data-name="Rectangle 864" class="cls-2" width="129" height="129" transform="translate(157 3988)"/>
</svg>
