<svg xmlns="http://www.w3.org/2000/svg" viewBox="-20364.121 -21844 33.127 33.127">
  <defs>
    <style>
      .cls-1 {
        fill: #505050;
      }

      .cls-2 {
        fill: #434a54;
      }

      .cls-3 {
        fill: #ffce54;
      }

      .cls-4 {
        fill: #4fc2e9;
      }

      .cls-5 {
        fill: #3bafda;
      }

      .cls-6 {
        fill: #f5f7fa;
      }

      .cls-7 {
        fill: #fc6e51;
      }
    </style>
  </defs>
  <g id="Group_1549" data-name="Group 1549" transform="translate(-20364.121 -21844)">
    <rect id="Rectangle_861" data-name="Rectangle 861" class="cls-1" width="33.128" height="33.128" rx="16.564" transform="translate(0 0)"/>
    <g id="taxi" transform="translate(2.962 9.311)">
      <path id="Path_8278" data-name="Path 8278" class="cls-2" d="M5.677,1.914H0V.567A.567.567,0,0,1,.567,0H5.109a.567.567,0,0,1,.567.567V1.914Z" transform="translate(9.066 0)"/>
      <path id="Path_8279" data-name="Path 8279" class="cls-3" d="M3.389,3.968S5.488,0,11.337,0s7.938,3.97,7.938,3.97c6.8,0,6.8,0,6.8,6.233H2.268A4.28,4.28,0,0,1,0,9.082V5.1L1.134,3.968Z" transform="translate(0.567 1.697)"/>
      <path id="Path_8280" data-name="Path 8280" class="cls-4" d="M15.129,3.4A9.118,9.118,0,0,0,7.57,0,9.146,9.146,0,0,0,0,3.4Z" transform="translate(4.335 1.697)"/>
      <rect id="Rectangle_862" data-name="Rectangle 862" class="cls-5" width="1.134" height="3.161" transform="translate(10.205 1.937)"/>
      <path id="Path_8281" data-name="Path 8281" class="cls-3" d="M2.824,11.339A4.705,4.705,0,0,1,.183,10.067.57.57,0,0,1,0,9.65V5.669a.568.568,0,0,1,.166-.4L1.3,4.135a.568.568,0,0,1,.4-.166H3.64A8.24,8.24,0,0,1,5.386,2.106,10.293,10.293,0,0,1,11.9,0a10.264,10.264,0,0,1,6.515,2.108,8.228,8.228,0,0,1,1.741,1.863c3.332,0,5.035.027,6.016.928,1.034.948,1.034,2.594,1.034,5.872a.567.567,0,0,1-.566.568Zm-1.69-1.95a3.384,3.384,0,0,0,1.69.815H26.077c0-2.5-.046-3.9-.666-4.47-.688-.63-2.421-.63-5.569-.63a.568.568,0,0,1-.5-.3,6.65,6.65,0,0,0-1.669-1.839A9.127,9.127,0,0,0,11.9,1.134c-5.445,0-7.428,3.63-7.448,3.666a.567.567,0,0,1-.5.3H1.936l-.8.8Z" transform="translate(0 1.129)"/>
      <g id="Group_1546" data-name="Group 1546" transform="translate(3.402 8.512)">
        <path id="Path_8282" data-name="Path 8282" class="cls-2" d="M2.834,0A2.834,2.834,0,1,0,5.668,2.833,2.837,2.837,0,0,0,2.834,0Z" transform="translate(0 0)"/>
        <path id="Path_8283" data-name="Path 8283" class="cls-2" d="M2.834,0A2.834,2.834,0,1,0,5.668,2.833,2.837,2.837,0,0,0,2.834,0Z" transform="translate(14.739 0)"/>
      </g>
      <path id="Path_8284" data-name="Path 8284" class="cls-6" d="M0,.566A.567.567,0,1,0,.567,0,.568.568,0,0,0,0,.566Z" transform="translate(5.669 10.779)"/>
      <g id="Group_1547" data-name="Group 1547" transform="translate(8.507 7.37)">
        <path id="Path_8285" data-name="Path 8285" class="cls-2" d="M.567,0a.567.567,0,1,0,.567.567A.567.567,0,0,0,.567,0Z" transform="translate(0 0)"/>
        <path id="Path_8286" data-name="Path 8286" class="cls-2" d="M.566,0a.567.567,0,1,0,.567.566A.567.567,0,0,0,.566,0Z" transform="translate(1.134 1.134)"/>
        <path id="Path_8287" data-name="Path 8287" class="cls-2" d="M.567,0a.567.567,0,1,0,.566.567A.567.567,0,0,0,.567,0Z" transform="translate(2.268 0)"/>
        <path id="Path_8288" data-name="Path 8288" class="cls-2" d="M.567,0a.567.567,0,1,0,.567.566A.567.567,0,0,0,.567,0Z" transform="translate(3.401 1.134)"/>
        <path id="Path_8289" data-name="Path 8289" class="cls-2" d="M.566,0a.567.567,0,1,0,.567.567A.566.566,0,0,0,.566,0Z" transform="translate(4.536 0)"/>
        <path id="Path_8290" data-name="Path 8290" class="cls-2" d="M.567,0a.567.567,0,1,0,.566.566A.567.567,0,0,0,.567,0Z" transform="translate(5.669 1.134)"/>
        <path id="Path_8291" data-name="Path 8291" class="cls-2" d="M.567,0a.567.567,0,1,0,.567.567A.567.567,0,0,0,.567,0Z" transform="translate(6.803 0)"/>
        <path id="Path_8292" data-name="Path 8292" class="cls-2" d="M.566,0a.567.567,0,1,0,.567.566A.566.566,0,0,0,.566,0Z" transform="translate(7.937 1.134)"/>
        <path id="Path_8293" data-name="Path 8293" class="cls-2" d="M.567,0a.567.567,0,1,0,.566.567A.567.567,0,0,0,.567,0Z" transform="translate(9.07 0)"/>
      </g>
      <g id="Group_1548" data-name="Group 1548" transform="translate(20.408 6.799)">
        <path id="Path_8294" data-name="Path 8294" class="cls-6" d="M0,.566A.567.567,0,1,0,.567,0,.568.568,0,0,0,0,.566Z" transform="translate(0 3.98)"/>
        <path id="Path_8295" data-name="Path 8295" class="cls-6" d="M2.686,1.115A4.175,4.175,0,0,0,2.367,0H.567a.567.567,0,1,0,0,1.133H2.546A.554.554,0,0,0,2.686,1.115Z" transform="translate(3.961 0)"/>
      </g>
      <path id="Path_8296" data-name="Path 8296" class="cls-7" d="M1.7,0a.568.568,0,0,0-.4.166L.166,1.3A.568.568,0,0,0,0,1.7H1.7a.567.567,0,0,0,.566-.567V0H1.7Z" transform="translate(0 5.098)"/>
    </g>
  </g>
</svg>
