<svg xmlns="http://www.w3.org/2000/svg" viewBox="-20365.309 -21899 33.127 33.129">
  <defs>
    <style>
      .cls-1 {
        fill: #505050;
      }

      .cls-2 {
        fill: #fcd088;
      }

      .cls-3 {
        fill: #172956;
      }

      .cls-4 {
        fill: #6d4711;
      }

      .cls-5 {
        fill: #ffedb5;
      }

      .cls-6 {
        fill: #494948;
      }

      .cls-7 {
        fill: #ffce54;
      }
    </style>
  </defs>
  <g id="_002-taxi-driver" data-name="002-taxi-driver" transform="translate(-20365.309 -21899)">
    <ellipse id="Ellipse_115" data-name="Ellipse 115" class="cls-1" cx="16.564" cy="16.564" rx="16.564" ry="16.564"/>
    <rect id="Rectangle_854" data-name="Rectangle 854" class="cls-2" width="5.521" height="6.051" transform="translate(13.803 18.907)"/>
    <rect id="Rectangle_855" data-name="Rectangle 855" class="cls-2" width="2.742" height="6.051" transform="translate(16.583 18.907)"/>
    <path id="Path_8262" data-name="Path 8262" class="cls-3" d="M126.54,336.256l-3.015-.6-.533-.778a.37.37,0,0,0-.451-.131l-.518.517a3.2,3.2,0,0,1-4.532-.006l-.507-.509a.37.37,0,0,0-.45.126l-.55.781-3.015.6a3.284,3.284,0,0,0-2.64,3.22v3.766a16.565,16.565,0,0,0,18.85,0v-3.766A3.284,3.284,0,0,0,126.54,336.256Z" transform="translate(-103.191 -313.057)"/>
    <path id="Path_8263" data-name="Path 8263" class="cls-3" d="M265.695,339.476a3.284,3.284,0,0,0-2.64-3.22l-3.015-.6-.533-.778a.37.37,0,0,0-.451-.131l-.518.517a3.192,3.192,0,0,1-2.25.936v9.988a16.486,16.486,0,0,0,9.407-2.942Z" transform="translate(-239.706 -313.057)"/>
    <path id="Path_8264" data-name="Path 8264" class="cls-4" d="M123.525,349.222l3.015.6a3.284,3.284,0,0,1,2.64,3.22v3.766a16.565,16.565,0,0,1-18.85,0v-3.766a3.284,3.284,0,0,1,2.64-3.22l3.015-.6,3.761,9.947Z" transform="translate(-103.191 -326.627)"/>
    <path id="Path_8265" data-name="Path 8265" class="cls-4" d="M265.695,353.045a3.284,3.284,0,0,0-2.64-3.22l-3.015-.6-3.751,9.873v.659a16.486,16.486,0,0,0,9.407-2.942Z" transform="translate(-239.706 -326.627)"/>
    <path id="Path_8266" data-name="Path 8266" class="cls-5" d="M166.176,102.336a7.534,7.534,0,0,0,.045-.809,5.977,5.977,0,1,0-11.935,0,7.563,7.563,0,0,0,.045.809c-.579.15-.854,1.041-.615,1.994s.907,1.612,1.489,1.466a.675.675,0,0,0,.15-.06c1.078,2.164,2.87,3.921,4.9,3.921s3.819-1.756,4.9-3.921a.673.673,0,0,0,.15.06c.583.146,1.249-.51,1.489-1.466S166.755,102.486,166.176,102.336Z" transform="translate(-143.69 -89.043)"/>
    <path id="Path_8267" data-name="Path 8267" class="cls-5" d="M262.192,102.342a7.534,7.534,0,0,0,.045-.809,6.154,6.154,0,0,0-5.949-6.323v14.452c2.02-.011,3.8-1.762,4.879-3.92a.675.675,0,0,0,.15.06c.583.146,1.249-.51,1.489-1.466S262.77,102.492,262.192,102.342Z" transform="translate(-239.706 -89.05)"/>
    <path id="Path_8268" data-name="Path 8268" class="cls-6" d="M161.127,171.61a15.543,15.543,0,0,0,.39,2.54l.521-.024a3.823,3.823,0,0,1,.967-2.612C164.1,170.2,161.127,171.61,161.127,171.61Z" transform="translate(-150.702 -159.892)"/>
    <path id="Path_8269" data-name="Path 8269" class="cls-7" d="M141.513,67.876c-4.374,0-7.911-.757-7.911-2.775s3.546-5.237,7.919-5.237S145.886,67.876,141.513,67.876Z" transform="translate(-124.958 -55.991)"/>
    <path id="Path_8270" data-name="Path 8270" class="cls-7" d="M264.189,65.108c0-2.015-3.536-5.227-7.9-5.236v8.012C260.649,67.88,264.189,67.122,264.189,65.108Z" transform="translate(-239.706 -55.998)"/>
    <path id="Path_8271" data-name="Path 8271" class="cls-6" d="M320.22,171.61a15.543,15.543,0,0,1-.39,2.54l-.521-.024a3.823,3.823,0,0,0-.967-2.612C317.246,170.2,320.22,171.61,320.22,171.61Z" transform="translate(-297.518 -159.892)"/>
    <path id="Path_8272" data-name="Path 8272" class="cls-3" d="M164.935,170.04a11.991,11.991,0,0,0,6.231-1.608c.123-.076.07-.265-.075-1.167H158.778c-.144.9-.2,1.091-.075,1.167A11.991,11.991,0,0,0,164.935,170.04Z" transform="translate(-148.371 -156.443)"/>
    <path id="Path_8273" data-name="Path 8273" class="cls-3" d="M262.426,167.265h-6.138v2.775a11.982,11.982,0,0,0,6.213-1.608C262.624,168.356,262.57,168.167,262.426,167.265Z" transform="translate(-239.706 -156.443)"/>
    <path id="Path_8274" data-name="Path 8274" class="cls-4" d="M168.277,154.211a43.678,43.678,0,0,0-12.254,0,.172.172,0,0,1-.195-.147l-.182-1.306a.26.26,0,0,1,.221-.293,45.353,45.353,0,0,1,12.54,0,.26.26,0,0,1,.221.293l-.186,1.332A.146.146,0,0,1,168.277,154.211Z" transform="translate(-145.573 -142.19)"/>
    <path id="Path_8275" data-name="Path 8275" class="cls-4" d="M262.54,152.463a45.354,45.354,0,0,0-6.252-.435v1.751a43.7,43.7,0,0,1,6.122.434.146.146,0,0,0,.165-.124l.186-1.332A.26.26,0,0,0,262.54,152.463Z" transform="translate(-239.706 -142.191)"/>
    <path id="Path_8276" data-name="Path 8276" class="cls-6" d="M213.629,267.308c-.779-.378-1.018-.212-1.164-.026-.145-.186-.384-.353-1.164.026a2.579,2.579,0,0,1-1.848-.059,2.127,2.127,0,0,0,1.936.715,1.625,1.625,0,0,1,2.152,0,2.126,2.126,0,0,0,1.936-.715A2.579,2.579,0,0,1,213.629,267.308Z" transform="translate(-195.902 -249.799)"/>
    <path id="Path_8277" data-name="Path 8277" class="cls-6" d="M257.433,267.308c-.747-.363-1-.225-1.145-.048v.319a1.525,1.525,0,0,0,1.057.385,2.126,2.126,0,0,0,1.936-.715A2.579,2.579,0,0,1,257.433,267.308Z" transform="translate(-239.706 -249.8)"/>
    <g id="Group_1545" data-name="Group 1545" transform="translate(14.282 6.847)">
      <rect id="Rectangle_856" data-name="Rectangle 856" class="cls-6" width="0.924" height="0.924"/>
      <rect id="Rectangle_857" data-name="Rectangle 857" class="cls-6" width="0.924" height="0.924" transform="translate(3.64)"/>
      <rect id="Rectangle_858" data-name="Rectangle 858" class="cls-6" width="0.924" height="0.924" transform="translate(0.916 0.915)"/>
      <rect id="Rectangle_859" data-name="Rectangle 859" class="cls-6" width="0.924" height="0.924" transform="translate(1.829)"/>
      <rect id="Rectangle_860" data-name="Rectangle 860" class="cls-6" width="0.924" height="0.924" transform="translate(2.745 0.915)"/>
    </g>
  </g>
</svg>
