<svg xmlns="http://www.w3.org/2000/svg" viewBox="-20391.033 -21788 33.127 33.127">
  <defs>
    <style>
      .cls-1 {
        fill: #505050;
      }

      .cls-2 {
        fill: #ffce54;
      }

      .cls-3 {
        fill: #fff;
      }

      .cls-4 {
        fill: #249ed9;
      }

      .cls-5 {
        fill: #464655;
      }
    </style>
  </defs>
  <g id="Group_1552" data-name="Group 1552" transform="translate(-20391.033 -21788)">
    <rect id="Rectangle_863" data-name="Rectangle 863" class="cls-1" width="33.128" height="33.128" rx="16.564" transform="translate(0 0)"/>
    <g id="_001-license-plate" data-name="001-license-plate" transform="translate(4.748 9.634)">
      <path id="Path_8297" data-name="Path 8297" class="cls-2" d="M21.195,106.351H2.437A2.437,2.437,0,0,0,0,108.788v8.94a2.437,2.437,0,0,0,2.437,2.437H21.195a2.437,2.437,0,0,0,2.437-2.437v-8.94A2.437,2.437,0,0,0,21.195,106.351Z" transform="translate(0 -106.351)"/>
      <path id="Path_8298" data-name="Path 8298" class="cls-3" d="M38.476,154.46a.694.694,0,0,1-.694-.694v-8.94a.694.694,0,0,1,.694-.694H57.233a.694.694,0,0,1,.694.694v8.94a.694.694,0,0,1-.694.694Z" transform="translate(-36.038 -142.389)"/>
      <g id="Group_1550" data-name="Group 1550" transform="translate(1.744 1.744)">
        <path id="Path_8299" data-name="Path 8299" class="cls-4" d="M57.233,144.133H38.476a.694.694,0,0,0-.694.694v1.8H57.926v-1.8A.694.694,0,0,0,57.233,144.133Z" transform="translate(-37.782 -144.133)"/>
        <path id="Path_8300" data-name="Path 8300" class="cls-4" d="M37.782,313.892v1.8a.694.694,0,0,0,.694.694H57.233a.694.694,0,0,0,.694-.694v-1.8Z" transform="translate(-37.782 -306.057)"/>
      </g>
      <g id="Group_1551" data-name="Group 1551" transform="translate(2.907 2.587)">
        <path id="Path_8301" data-name="Path 8301" class="cls-5" d="M65.091,219.922h-.608l-.1-.7h-.74l-.1.7h-.554l.614-3.837h.882ZM63.715,218.7H64.3l-.29-1.94Z" transform="translate(-62.981 -213.607)"/>
        <path id="Path_8302" data-name="Path 8302" class="cls-5" d="M121.069,216.968v.137a.753.753,0,0,1-.389.773.776.776,0,0,1,.449.822v.312a.816.816,0,0,1-.915.91h-.948v-3.837h.91C120.8,216.086,121.069,216.376,121.069,216.968Zm-1.2-.334v1.014h.236c.225,0,.362-.1.362-.406v-.214c0-.274-.093-.395-.307-.395Zm0,1.562v1.178h.345c.2,0,.312-.093.312-.378v-.334c0-.356-.115-.466-.389-.466h-.269Z" transform="translate(-116.668 -213.608)"/>
        <path id="Path_8303" data-name="Path 8303" class="cls-5" d="M172.716,217.583v.51c0,.614-.307.965-.9.965s-.9-.351-.9-.965v-2c0-.614.307-.965.9-.965s.9.351.9.965v.373h-.57v-.411c0-.274-.121-.378-.312-.378s-.312.1-.312.378v2.072c0,.274.121.373.312.373s.312-.1.312-.373v-.548Z" transform="translate(-165.936 -212.699)"/>
        <path id="Path_8304" data-name="Path 8304" class="cls-5" d="M244.657,251.708h1.1v.548h-1.1Z" transform="translate(-236.271 -247.585)"/>
        <path id="Path_8305" data-name="Path 8305" class="cls-5" d="M312.815,216.566a.6.6,0,0,0,.663-.482h.406v3.837h-.6v-2.927h-.466Z" transform="translate(-301.284 -213.606)"/>
        <path id="Path_8306" data-name="Path 8306" class="cls-5" d="M357.156,215.682c-.192,0-.312.1-.312.378v.411h-.57V216.1c0-.614.307-.965.9-.965s.9.351.9.965c0,1.206-1.2,1.655-1.2,2.285a.415.415,0,0,0,.005.082h1.14v.548h-1.743v-.471c0-1.129,1.195-1.315,1.195-2.423C357.469,215.775,357.348,215.682,357.156,215.682Z" transform="translate(-342.737 -212.7)"/>
        <path id="Path_8307" data-name="Path 8307" class="cls-5" d="M408.291,216.121c0-.345-.121-.438-.312-.438s-.312.1-.312.378v.247h-.57V216.1c0-.614.307-.965.9-.965s.9.351.9.965v.1a.747.747,0,0,1-.422.789.783.783,0,0,1,.422.806v.3c0,.614-.307.965-.9.965s-.9-.351-.9-.965v-.318h.57v.356c0,.274.121.378.313.378s.312-.093.312-.433v-.3c0-.356-.121-.488-.395-.488h-.2v-.548h.236c.225,0,.362-.1.362-.406Z" transform="translate(-391.213 -212.7)"/>
        <ellipse id="Ellipse_116" data-name="Ellipse 116" class="cls-5" cx="0.409" cy="0.409" rx="0.409" ry="0.409" transform="translate(2.449 0)"/>
        <ellipse id="Ellipse_117" data-name="Ellipse 117" class="cls-5" cx="0.409" cy="0.409" rx="0.409" ry="0.409" transform="translate(2.449 7.831)"/>
        <ellipse id="Ellipse_118" data-name="Ellipse 118" class="cls-5" cx="0.409" cy="0.409" rx="0.409" ry="0.409" transform="translate(14.55 0)"/>
        <ellipse id="Ellipse_119" data-name="Ellipse 119" class="cls-5" cx="0.409" cy="0.409" rx="0.409" ry="0.409" transform="translate(14.55 7.831)"/>
      </g>
    </g>
  </g>
</svg>
