<svg xmlns="http://www.w3.org/2000/svg" viewBox="-20366.033 -21956 33.127 33.127">
  <defs>
    <style>
      .cls-1 {
        fill: #505050;
      }

      .cls-2 {
        fill: #ffce54;
      }

      .cls-3 {
        fill: #fff;
      }

      .cls-4 {
        fill: #f16051;
      }

      .cls-5 {
        fill: none;
      }

      .cls-6 {
        fill: #193651;
      }
    </style>
  </defs>
  <g id="Group_1544" data-name="Group 1544" transform="translate(-20366.033 -21956)">
    <path id="Path_8255" data-name="Path 8255" class="cls-1" d="M16.564,0A16.564,16.564,0,1,1,0,16.564,16.564,16.564,0,0,1,16.564,0Z" transform="translate(0 0)"/>
    <g id="alarm-clock" transform="translate(4.671 3.443)">
      <g id="Group_1541" data-name="Group 1541" transform="translate(1.822 1.718)">
        <path id="Path_8256" data-name="Path 8256" class="cls-2" d="M281.514,12.941Z" transform="translate(-261.127 -7.235)"/>
        <path id="Path_8257" data-name="Path 8257" class="cls-2" d="M12.78,7.582Z" transform="translate(-7.403 -7.582)"/>
        <path id="Path_8258" data-name="Path 8258" class="cls-3" d="M40.429,55.208h0a10.044,10.044,0,0,0-10.045,10.01h0A10.054,10.054,0,0,0,40.429,75.262h0A10.052,10.052,0,0,0,50.473,65.218h0A10.044,10.044,0,0,0,40.429,55.208Z" transform="translate(-30.384 -53.432)"/>
      </g>
      <path id="Path_8259" data-name="Path 8259" class="cls-2" d="M63.643,96.448a8.564,8.564,0,1,1,8.564-8.564A8.569,8.569,0,0,1,63.643,96.448Z" transform="translate(-51.776 -74.382)"/>
      <rect id="Rectangle_839" data-name="Rectangle 839" class="cls-4" width="0.74" height="6.152" transform="matrix(0.863, 0.505, -0.505, 0.863, 11.543, 13.325)"/>
      <g id="Group_1542" data-name="Group 1542" transform="translate(11.312 7.385)">
        <rect id="Rectangle_840" data-name="Rectangle 840" class="cls-3" width="1.113" height="6.152"/>
        <rect id="Rectangle_841" data-name="Rectangle 841" class="cls-3" width="4.264" height="1.113" transform="translate(0.554 5.563)"/>
      </g>
      <path id="Path_8260" data-name="Path 8260" class="cls-5" d="M22.21,7.9l.26-.26a4.338,4.338,0,0,0,0-6.152,4.314,4.314,0,0,0-3.113-1.3,4.363,4.363,0,0,0-3.078,1.26l-.26.26,2.818,2.818-.667.706a10.46,10.46,0,0,0-12.607,0l-.706-.706L7.676,1.714l-.26-.26A4.208,4.208,0,0,0,4.377.194,4.3,4.3,0,0,0,1.3,1.454,4.314,4.314,0,0,0,0,4.567,4.363,4.363,0,0,0,1.26,7.645l.26.26L4.338,5.086l.632.632A10.39,10.39,0,0,0,1.45,13.5a10.521,10.521,0,0,0,3.411,7.711L2.787,23.287l.554.52,2.113-2.113a10.491,10.491,0,0,0,6.412,2.225,10.256,10.256,0,0,0,6.412-2.225l2.113,2.113.52-.52-2.074-2.074a10.393,10.393,0,0,0-.109-15.5l.632-.632ZM1.562,6.831a3.6,3.6,0,0,1-.814-2.26A3.509,3.509,0,0,1,1.822,2.012,3.494,3.494,0,0,1,4.381.938a3.72,3.72,0,0,1,2.3.814ZM21.543,13.5a9.676,9.676,0,1,1-19.352,0A9.565,9.565,0,0,1,5.528,6.238l.593-.481A9.875,9.875,0,0,1,18.2,6.238,9.627,9.627,0,0,1,21.543,13.5Zm-4.45-11.75a3.6,3.6,0,0,1,2.26-.814,3.509,3.509,0,0,1,2.559,1.074,3.642,3.642,0,0,1,.26,4.857Z" transform="translate(0 0)"/>
      <circle id="Ellipse_114" data-name="Ellipse 114" class="cls-3" cx="0.927" cy="0.927" r="0.927" transform="translate(10.94 12.576)"/>
      <g id="Group_1543" data-name="Group 1543" transform="translate(4.043 5.718)">
        <path id="Path_8261" data-name="Path 8261" class="cls-6" d="M177.525,203.065a1.3,1.3,0,1,1,1.3-1.3A1.291,1.291,0,0,1,177.525,203.065Zm0-1.853a.554.554,0,1,0,.554.554A.57.57,0,0,0,177.525,201.212Z" transform="translate(-169.702 -193.982)"/>
        <rect id="Rectangle_842" data-name="Rectangle 842" class="cls-6" width="0.74" height="0.74" transform="translate(7.451)"/>
        <rect id="Rectangle_843" data-name="Rectangle 843" class="cls-6" width="0.74" height="0.74" transform="translate(7.451 14.863)"/>
        <rect id="Rectangle_844" data-name="Rectangle 844" class="cls-6" width="0.74" height="0.74" transform="matrix(-0.5, -0.866, 0.866, -0.5, 3.964, 1.879)"/>
        <rect id="Rectangle_845" data-name="Rectangle 845" class="cls-6" width="0.74" height="0.74" transform="matrix(0.5, 0.866, -0.866, 0.5, 11.677, 13.721)"/>
        <rect id="Rectangle_846" data-name="Rectangle 846" class="cls-6" width="0.74" height="0.74" transform="translate(1.243 3.567) rotate(29.993)"/>
        <rect id="Rectangle_847" data-name="Rectangle 847" class="cls-6" width="0.74" height="0.74" transform="matrix(0.866, 0.5, -0.5, 0.866, 14.132, 11.026)"/>
        <rect id="Rectangle_848" data-name="Rectangle 848" class="cls-6" width="0.74" height="0.74" transform="translate(0 7.412)"/>
        <rect id="Rectangle_849" data-name="Rectangle 849" class="cls-6" width="0.74" height="0.74" transform="translate(14.902 7.412)"/>
        <rect id="Rectangle_850" data-name="Rectangle 850" class="cls-6" width="0.74" height="0.74" transform="matrix(-0.866, 0.5, -0.5, -0.866, 1.872, 11.648)"/>
        <rect id="Rectangle_851" data-name="Rectangle 851" class="cls-6" width="0.74" height="0.74" transform="matrix(0.5, 0.866, -0.866, 0.5, 14.405, 3.581)"/>
        <rect id="Rectangle_852" data-name="Rectangle 852" class="cls-6" width="0.74" height="0.74" transform="translate(4.625 14.104) rotate(119.993)"/>
        <rect id="Rectangle_853" data-name="Rectangle 853" class="cls-6" width="0.74" height="0.74" transform="translate(11.663 1.869) rotate(-150.007)"/>
      </g>
    </g>
  </g>
</svg>
